<svg xmlns="http://www.w3.org/2000/svg" viewBox="0 0 511.11 511.21"><defs><style>.cls-1{fill:#fff;}</style></defs><g id="Layer_2" data-name="Layer 2"><g id="Layer_1-2" data-name="Layer 1"><path class="cls-1" d="M511.11,237.67v35.94c-.73,5.73-1.36,11.48-2.21,17.19-8.11,54.29-30.7,101.65-68.74,141.29-38.64,40.28-85.5,65.56-140.59,75.17-9.29,1.62-18.67,2.64-28,3.95H239.62c-1.61-.32-3.22-.7-4.85-1-13.42-2.12-27.09-3.23-40.23-6.47C61.64,470.94-21.74,339.6,5,205.67,27.82,91.12,126.59,5.64,242.68.3,295.56-2.13,345,10,389.83,38.36c63.94,40.51,103.31,98.2,117.37,172.8C508.85,219.93,509.82,228.83,511.11,237.67Zm-239.45,5.57H374.93c-1-35.74-6.67-70.5-17.81-103.77l-85.46,5Zm-32.37.22v-99l-85.32-5a360.75,360.75,0,0,0-17.71,104Zm0,123.32V275.93H136.55c1.62,33.12,7.2,65.12,17.44,95.84Zm134.85-90.84H271.94v91.2c14.49.63,28.6,1.07,42.68,1.9s28.08,2,42.1,3.07C365.24,352.26,375.73,294.55,374.14,275.94Zm33.23-32.66h71.5c-.88-7.35-1.57-14.27-2.56-21.14-4.82-33.75-17.37-64.45-36.35-92.67-1.77-2.64-3.45-3.33-6.47-2.65-7.1,1.59-14.28,2.89-21.44,4.23s-14.5,2.6-22,3.94C401.08,170.66,406,206.67,407.37,243.28ZM121.05,135.21a21.34,21.34,0,0,0-2.26-.73c-14.16-2.61-28.32-5.3-42.53-7.64-1.45-.24-3.85,1.32-4.83,2.73A212.84,212.84,0,0,0,37,209.86c-2.2,10.95-3.38,22.1-5.06,33.42h71.87C105.09,206.48,110.16,170.63,121.05,135.21Zm269,240.9c15.57,2.94,30.51,5.86,45.51,8.43,1.25.21,3.34-1.58,4.29-3a212.07,212.07,0,0,0,31.85-69.73c2.95-11.75,4.69-23.81,7-36H407C405.31,309.9,400.24,343.24,390.09,376.11ZM32.94,275.81c.37,2.67.7,4.79,1,6.93C38.19,319,51,352,71.48,382.2c1.78,2.62,3.64,2.73,6.25,2.21q14.11-2.87,28.27-5.53c5-.94,9.93-1.68,15.15-2.54-10.29-33.18-15.24-66.52-17-100.53ZM239.17,476.49V399.2L167,403C182,437.89,211.35,470.86,239.17,476.49Zm105.7-368.23c-17.08-32.76-36.2-61.79-72.95-74.19v78ZM271.73,476.38c23.17-2.3,63.82-43.45,72.21-73.43l-72.21-3.72ZM239.41,112.05V34c-36.86,12.46-56,41.44-73.14,74.21Zm112-58.16,28.43,50L414,98.18C394.92,79.27,374.34,64.67,351.37,53.89ZM414,413.06l-34.18-5.68c-9.71,17-19.07,33.49-28.54,50.13A225.9,225.9,0,0,0,414,413.06Zm-282.67-5.71-34.16,5.78c19.27,18.91,39.71,33.53,62.57,44.17Zm28.46-353.5A225.05,225.05,0,0,0,97.16,98.22l34.2,5.64Z"/></g></g></svg>