<svg height="30" viewBox="0 0 238 30" width="238" xmlns="http://www.w3.org/2000/svg" xmlns:xlink="http://www.w3.org/1999/xlink"><mask id="a" fill="#fff"><path d="m0 .2002h29.8556v28.128h-29.8556z" fill="#fff" fill-rule="evenodd"/></mask><mask id="b" fill="#fff"><path d="m.1563.041h25.449v19.6936h-25.449z" fill="#fff" fill-rule="evenodd"/></mask><mask id="c" fill="#fff"><path d="m.1571.0243h29.155v21.9757h-29.155z" fill="#fff" fill-rule="evenodd"/></mask><g fill="#fff" fill-rule="evenodd"><path d="m28.9316.2002c.616 0 .924.295.924.884v3.818c0 .589-.308.883-.924.883h-17.56c-1.044 0-1.909.088-2.592.262s-1.232.468-1.647.883c-.416.416-.703.979-.864 1.688-.161.71-.241 1.587-.241 2.632v.402h22.703c.589 0 .884.295.884.884v3.175c0 .589-.295.884-.884.884h-22.703v.683c0 1.044.08 1.922.241 2.632s.448 1.272.864 1.687c.415.415.964.71 1.647.884.683.175 1.548.262 2.592.262h17.56c.616 0 .924.295.924.884v3.817c0 .589-.308.884-.924.884h-17.681c-2.036 0-3.763-.188-5.183-.563s-2.579-.984-3.476-1.828c-.898-.843-1.554-1.942-1.969-3.295-.416-1.352-.623-2.994-.623-4.922v-6.912c0-1.928.207-3.562.623-4.902.415-1.339 1.071-2.431 1.969-3.275.897-.844 2.056-1.46 3.476-1.848s3.147-.583 5.183-.583z" mask="url(#a)" transform="translate(0 .9595)"/><path d="m40.624 15.5049h15.39c1.366 0 2.331-.294 2.893-.884.563-.589.844-1.487.844-2.692v-1.688c0-1.205-.281-2.103-.844-2.692-.562-.589-1.527-.884-2.893-.884h-14.868c-.348 0-.522.161-.522.482zm16.636-14.345c3.08 0 5.29.697 6.63 2.089 1.339 1.394 2.01 3.456 2.01 6.189v2.29c0 2.304-.47 4.126-1.407 5.464-.938 1.34-2.465 2.197-4.581 2.572l6.871 8.519c.134.135.174.336.121.603-.055.268-.268.402-.643.402h-5.184c-.349 0-.589-.04-.723-.12-.134-.081-.268-.215-.402-.403l-6.349-8.357h-12.979v7.996c0 .589-.295.884-.884.884h-4.34c-.616 0-.924-.295-.924-.884v-26.039c0-.803.402-1.205 1.206-1.205z"/><path d="m99.1704 1.1597c.589 0 .884.295.884.884v3.938c0 .616-.295.924-.884.924h-17.881c-1.045 0-1.909.087-2.592.261-.683.175-1.225.47-1.628.885-.401.415-.689.971-.864 1.667-.174.697-.261 1.581-.261 2.652v5.706c0 1.072.087 1.963.261 2.672.175.71.463 1.272.864 1.687.403.416.945.711 1.628.885s1.547.261 2.592.261h17.881c.589 0 .884.295.884.884v3.938c0 .589-.295.884-.884.884h-18.122c-2.036 0-3.765-.188-5.184-.563-1.421-.375-2.579-.984-3.475-1.828-.899-.843-1.555-1.942-1.97-3.295-.415-1.352-.622-2.994-.622-4.922v-6.912c0-1.928.207-3.562.622-4.902.415-1.339 1.071-2.431 1.97-3.275.896-.844 2.054-1.46 3.475-1.848 1.419-.388 3.148-.583 5.184-.583z"/><path d="m108.0503 1.1597c.429 0 .75.161.965.482l10.728 14.506 10.81-14.506c.214-.321.535-.482.964-.482h5.263c.215 0 .363.087.443.261.08.175.054.356-.08.543l-14.426 18.725v7.715c0 .589-.295.884-.884.884h-4.34c-.617 0-.924-.295-.924-.884v-7.715l-14.265-18.725c-.133926-.187-.167-.368-.101-.543.067-.174.222-.261.463-.261z"/><path d="m199.1411 1.1597c.616 0 .925.295.925.884v3.818c0 .589-.309.883-.925.883h-17.56c-1.044 0-1.908.088-2.591.262s-1.233.468-1.648.883c-.415.416-.703.979-.864 1.688-.16.71-.24 1.587-.24 2.632v.402h22.703c.589 0 .884.295.884.884v3.175c0 .589-.295.884-.884.884h-22.703v.683c0 1.044.08 1.922.24 2.632.161.71.449 1.272.864 1.687s.965.71 1.648.884c.683.175 1.547.262 2.591.262h17.56c.616 0 .925.295.925.884v3.817c0 .589-.309.884-.925.884h-17.68c-2.036 0-3.764-.188-5.183-.563-1.421-.375-2.579-.984-3.476-1.828-.898-.843-1.555-1.942-1.97-3.295-.415-1.352-.622-2.994-.622-4.922v-6.912c0-1.928.207-3.562.622-4.902.415-1.339 1.072-2.431 1.97-3.275.897-.844 2.055-1.46 3.476-1.848 1.419-.388 3.147-.583 5.183-.583z"/><path d="m210.8345 15.5049h15.391c1.366 0 2.33-.294 2.892-.884.563-.589.844-1.487.844-2.692v-1.688c0-1.205-.281-2.103-.844-2.692-.562-.589-1.526-.884-2.892-.884h-14.869c-.348 0-.522.161-.522.482zm16.636-14.345c3.08 0 5.29.697 6.63 2.089 1.339 1.394 2.009 3.456 2.009 6.189v2.29c0 2.304-.469 4.126-1.406 5.464-.938 1.34-2.466 2.197-4.581 2.572l6.871 8.519c.134.135.174.336.12.603-.053.268-.267.402-.642.402h-5.184c-.349 0-.59-.04-.724-.12-.133-.081-.267-.215-.401-.403l-6.349-8.357h-12.979v7.996c0 .589-.295.884-.884.884h-4.34c-.616 0-.923-.295-.923-.884v-26.039c0-.803.401-1.205 1.205-1.205z"/><path d="m18.3433.0406h-10.925c-4.004 0-7.262 3.257-7.262 7.261v6.332l5.5-5.5v-.832c0-.971.791-1.761 1.762-1.761h10.925c.971 0 1.762.79 1.762 1.761 0 .228-.021.453-.063.673l-7.872 7.871 3.889 3.889 8.379-8.379c.29-.289.511-.64.648-1.025.344-.972.519-1.991.519-3.029 0-4.004-3.258-7.261-7.262-7.261" mask="url(#b)" transform="translate(138 .9595)"/><path d="m25.8481 6.0533-3.932 3.932c1.156.725 1.896 2.003 1.896 3.4 0 1.717-1.398 3.115-3.115 3.115h-15.04v-3.829l8.355-8.878-4.005-3.769-9.103 9.672c-.48.51-.747 1.184-.747 1.884v7.67c0 1.518 1.231 2.75 2.75 2.75h17.79c4.75 0 8.615-3.865 8.615-8.615 0-2.879-1.32-5.554-3.464-7.332" mask="url(#c)" transform="translate(138 7.9595)"/></g></svg>